<?xml version="1.0" encoding="UTF-8"?>
<svg width="512px" height="512px" viewBox="0 0 512 512" version="1.1" xmlns="http://www.w3.org/2000/svg" xmlns:xlink="http://www.w3.org/1999/xlink">
    <!-- Generator: Sketch 55.2 (78181) - https://sketchapp.com -->
    <title>Mobile</title>
    <desc>Created with Sketch.</desc>
    <defs>
        <linearGradient x1="0.00370462788%" y1="49.994962%" x2="100.000157%" y2="49.994962%" id="linearGradient-1">
            <stop stop-color="#673AB7" offset="18.46%"></stop>
            <stop stop-color="#8D63EA" offset="92.52%"></stop>
        </linearGradient>
    </defs>
    <g id="Mobile" stroke="none" stroke-width="1" fill="none" fill-rule="evenodd">
        <g id="mobile-logo" transform="translate(17.000000, 14.000000)" fill-rule="nonzero">
            <path d="M388.233925,390.154872 C292.133925,457.254872 123.233925,516.754872 56.5339248,462.754872 C-34.5660752,389.054872 -1.76607523,288.354872 58.2339248,123.354872 C102.833925,0.454871826 131.233925,-56.9451282 358.933925,76.7548718 C518.133925,170.054872 508.333925,306.354872 388.233925,390.154872 Z" id="Path" fill="url(#linearGradient-1)"></path>
            <path d="M119,110 L119,344.155957 C119,370.579492 140.41892,392 166.840497,392 C172.63403,392 178.379386,390.947588 183.796808,388.89401 L338.514836,330.245149 C362.891732,321.004615 375.162733,293.750839 365.922884,269.372137 C362.681161,260.819076 357.024586,253.39209 349.640875,247.994137 L270.593766,190.205775 L244.243245,226.255271 L323.290354,284.043632 C323.689473,284.335413 323.995234,284.736872 324.170462,285.1992 C324.669914,286.516967 324.006616,287.990144 322.688946,288.489633 L167.970918,347.138494 C167.609756,347.275399 167.226733,347.34556 166.840497,347.34556 C165.079059,347.34556 163.651131,345.917526 163.651131,344.155957 L163.651131,110 L119,110 Z" id="Path-4" fill="#FFFFFF"></path>
        </g>
    </g>
</svg>